# xmcd
#
# Track frame offsets: 
#        150
#        15541
#        33506
#        45448
#        68546
#        85236
#        98035
#        110026
#        135444
#        175505
#
# Disc length: 2653 seconds
#
# Revision: 0
# Processed by: cddbd v1.5.2PL0 Copyright (c) Steve Scherf et al.
# Submitted via: ExactAudioCopy v1.0b2
#
DISCID=700a5b0a
DTITLE=Wickens-Knight Band - Wickens-Knight
DYEAR=2005
DGENRE=Blues
TTITLE0=Five Below Zero
TTITLE1=Something Real
TTITLE2=Mean Woman
TTITLE3=Have Love, Will Travel
TTITLE4=Nothing Personal
TTITLE5=Little Girl
TTITLE6=Fresh Wounds (When I Look In The Mirror)
TTITLE7=Dreams To Remember
TTITLE8=Travelling Riverside Blues - Josephine
TTITLE9=Please Come Home
EXTD=
EXTT0=
EXTT1=
EXTT2=
EXTT3=
EXTT4=
EXTT5=
EXTT6=
EXTT7=
EXTT8=
EXTT9=
PLAYORDER=
